<svg xmlns="http://www.w3.org/2000/svg" width="96" height="96" viewBox="0 0 48 48" aria-hidden="true"><defs><clipPath id="kpilka"><circle cx="24" cy="24" r="21"/></clipPath><radialGradient id="cpilka" cx="35%" cy="30%" r="80%"><stop offset="0" stop-color="#FFFFFF"/><stop offset=".65" stop-color="#F0F0F0"/><stop offset="1" stop-color="#B8B8B8"/></radialGradient></defs><circle cx="24" cy="24" r="21" fill="url(#cpilka)"/><g clip-path="url(#kpilka)"><polygon points="24.00,17.80 29.90,22.08 27.64,29.02 20.36,29.02 18.10,22.08" fill="#1B1B1B" stroke="#1B1B1B" stroke-width="1" stroke-linejoin="round"/><polygon points="34.11,10.08 32.15,4.05 37.28,0.32 42.42,4.05 40.46,10.08" fill="#1B1B1B" stroke="#1B1B1B" stroke-width="1" stroke-linejoin="round"/><polygon points="40.36,29.32 45.49,25.58 50.63,29.32 48.67,35.35 42.32,35.35" fill="#1B1B1B" stroke="#1B1B1B" stroke-width="1" stroke-linejoin="round"/><polygon points="24.00,41.20 29.14,44.93 27.17,50.97 20.83,50.97 18.86,44.93" fill="#1B1B1B" stroke="#1B1B1B" stroke-width="1" stroke-linejoin="round"/><polygon points="7.64,29.32 5.68,35.35 -0.67,35.35 -2.63,29.32 2.51,25.58" fill="#1B1B1B" stroke="#1B1B1B" stroke-width="1" stroke-linejoin="round"/><polygon points="13.89,10.08 7.54,10.08 5.58,4.05 10.72,0.32 15.85,4.05" fill="#1B1B1B" stroke="#1B1B1B" stroke-width="1" stroke-linejoin="round"/><path d="M24.00 17.80L24.00 12.80M24.00 12.80L13.89 10.08M24.00 12.80L34.11 10.08M29.90 22.08L34.65 20.54M34.65 20.54L34.11 10.08M34.65 20.54L40.36 29.32M27.64 29.02L30.58 33.06M30.58 33.06L40.36 29.32M30.58 33.06L24.00 41.20M20.36 29.02L17.42 33.06M17.42 33.06L24.00 41.20M17.42 33.06L7.64 29.32M18.10 22.08L13.35 20.54M13.35 20.54L7.64 29.32M13.35 20.54L13.89 10.08" stroke="#1B1B1B" stroke-width="1.3" stroke-linecap="round" fill="none"/></g><circle cx="24" cy="24" r="21" fill="none" stroke="#1B1B1B" stroke-width="2.4"/><ellipse cx="15.5" cy="12.5" rx="4.5" ry="2.4" fill="#fff" opacity=".75" transform="rotate(-32 15.5 12.5)"/></svg>